<?xml version="1.0" encoding="UTF-8"?>
<svg id="Capa_2" data-name="Capa 2" xmlns="http://www.w3.org/2000/svg" viewBox="0 0 424.75 72.86">
  <defs>
    <style>
      .cls-1 {
        fill: #5F281B;
      }
    </style>
  </defs>
  <g id="Capa_1-2" data-name="Capa 1">
    <g>
      <path class="cls-1" d="M71.92,2.71l-.98,1.44c-2.41-.11-4.53,.29-6.34,1.2-.87-.08-2.17-.24-3.9-.48-.24,.05-1.3,.36-3.17,.92-1.33,.4-2.4,.6-3.21,.6-.33,0-.62-.03-.89-.08-.49,.53-1.27,1.33-2.36,2.39h-.89l-.24,.36c-.54,.24-1.23,.72-2.07,1.44-.84,.72-1.53,1.2-2.07,1.44v.32l-.89,.88h6.83c.32,.03,1.27,.31,2.85,.84,1.44,.48,2.37,.68,2.81,.6,1,.45,2.44,1.22,4.31,2.31,.62,1.25,1.36,3.17,2.2,5.75-.16,1.6-.49,3.21-.97,4.83-.46,.4-1.04,1.29-1.75,2.67-.81,1.52-1.45,2.54-1.91,3.07-1.14,.53-2.78,1.41-4.92,2.63v.32c-.7,.59-1.84,1.14-3.39,1.68-1.56,.53-2.49,.93-2.78,1.2h-1.22l-1.46,.56-.33,1.2-1.14,.56-1.46-.56c-.22-1.33-.73-2.39-1.54-3.19v-.88h1.54l1.14-.56c1.19,.48,1.98,.67,2.36,.56l3.25-.88v-.32l.89-.24v-.32l1.79-.88,.32-1.12,2.03-.72v-2.23l.33-.24c.43-.74,.73-1.54,.89-2.39-.65-1.76-.81-3.98-.49-6.66l-.98-1.68v-1.68l-1.22-.72v-.64c-1.22-.74-3.39-1.12-6.51-1.12-.27,0-1.17,.19-2.69,.56-.49,1.2-1.24,2.47-2.27,3.83l-.08,2.87-.57,.88h-.32l-.32,.24,.32,.64v.56l-.97,1.24v.24l-.32,.32,.32,.56v.88l-1.26,.56-.32,2.08,.32,.24,.49,.8c-.19,.69-.65,1.3-1.38,1.84h-.24l-.32,.32-.41,2.79c-1.43,1.68-2.19,3.57-2.27,5.67l-1.14,1.48-.81,3.27c.16,.96,.24,1.52,.24,1.68,0-.37-.11,.51-.32,2.63l-1.46,1.6c-.46,1.52-1.38,3.74-2.76,6.66v1.92c-1.25,.75-2.68,1.73-4.31,2.95l-.65,1.44-2.07,.56v.56l-2.03,1.2c-.62,.11-1.54,.29-2.76,.56l-1.22-.24c-.6,.11-1.41,.35-2.44,.72l-1.54-1.04c-.52,.05-1.33-.05-2.44-.32l-.24-.56-1.46-.32c-.41-.53-1.53-1.2-3.37-2-1.19-1.68-2.17-2.93-2.93-3.75-.22-2.98-.33-4.16-.33-3.55s.11-.4,.33-2.95c.41-.56,.89-1.41,1.46-2.55v-1.52l.65-.56,1.14-.32v-.56h1.26c.79,.27,1.65,.56,2.6,.88l1.54,2.08,.24,1.12-.57,.56-.32,2.95-.57,.88h-1.14l-1.79-2.31-1.58-.32-.57,.88v3.19c0,.19,.3,1.16,.89,2.91,2.46,1.17,3.97,2.26,4.51,3.27l2.36,.56,2.36-.56,1.79-1.2,.57,.32,1.46-.64,1.38-1.36c.57-1.7,1.88-3.77,3.94-6.19,.35-1.41,.84-3.19,1.46-5.35l1.54-.4-.33-1.2c.35-1.22,.62-2.74,.81-4.55l1.14-.96c.24-1.14,.33-2.35,.24-3.63h.33c.3-.98,.41-1.86,.33-2.63h.24l.89-2.63,1.54-1.44,.73-2.15-.49-.72,1.22-2.07-.57-.56,1.3-1.92-.24-1.64,1.46-.88,.33-.56-.33-1.75,1.46-1.44v-.88l.89-.56c.46-1.17,1.06-2.15,1.79-2.95v-1.12h-.24c-2.71,.45-4.61,.64-5.69,.56-1.54,.64-3.87,1.57-6.99,2.79-.7,.19-1.75,.51-3.13,.96-.22,.05-.7,.45-1.46,1.2l-1.79,.56c-.62,1.22-2.01,2.39-4.14,3.51-.89,1.78-1.87,2.97-2.93,3.55l-.33,.56-1.14,.88v1.44l-.65,1.44,.65,.32c-.05,.72,.03,1.68,.24,2.87l1.79-.24,1.22-.88,2.11-.56,2.28-1.76,.65-1.2,.89-.56c.27-.61,.35-1.3,.24-2.07-.35-.69-.73-1.17-1.14-1.44v-.92c.24-.35,.92-.82,2.03-1.44v-.32l.89-.24c.95,.24,1.86,.9,2.72,2l-.33,1.8-.57,.88-.24,2.31-1.02,1.92c-1.06,.88-2.33,1.41-3.82,1.6-1.06,1.25-2.84,2.21-5.36,2.87l-3.25-.24-2.03-1.2c-.19-.43-.49-.8-.89-1.12,.08-.29-.01-.88-.28-1.76-.27-.88-.37-1.57-.28-2.08,.73-1.22,1.52-2.1,2.36-2.63l1.14-2.35c.46-.53,1.19-1.28,2.19-2.23,1.98-1.54,3.6-2.71,4.87-3.51,.57-.21,1.38-.58,2.44-1.12,.57-.48,1.46-1.12,2.68-1.92,.46-.13,1.12-.35,1.99-.64,.76-.43,1.9-.98,3.41-1.68,1.49-.53,3.74-1.01,6.74-1.44,.76,.03,1.95-.13,3.57-.48,1,.51,1.99,.67,2.97,.48,.49-.19,1.07-.66,1.75-1.44,.49-.58,.99-1.17,1.5-1.76,.92-.88,1.9-1.64,2.93-2.27,1.68-.82,4.14-2.1,7.4-3.83,.98,.03,2.71-.33,5.2-1.08,2.38-.69,4.05-1.32,5-1.88,.14,0,.34,.01,.61,.04,.27,.03,.47,.04,.61,.04,.27,0,.7-.05,1.28-.16,.58-.11,1.02-.16,1.32-.16,.32,0,.88,.06,1.67,.18,.79,.12,1.4,.17,1.83,.14l.73,2.39Z"/>
      <path class="cls-1" d="M85.2,46.01l-.32,.56-.57,.32v.32l-2.35,.24-.33,.64v.8l-.25,.32v.88h-.33v.32l-.49,.56-.16,.72-.65,.48,.25,.56c-.25,.43-.58,1.38-1.02,2.87l-1.22,1.44h.33v.32c-.9,.59-1.6,1.18-2.12,1.8l-.16,.48,.16,.4-.32,2.63h-.24v.56l-.56,.88,.24,.56,.89,.24c.7-.77,1.8-1.44,3.29-2l.49,.88-.77,1.52c-1.19,.75-2.19,1.7-3.01,2.87-1.63,.45-2.71,.64-3.25,.56v-.24h-.89c-.51-.61-1.11-1.12-1.79-1.52,.05-.61-.03-1.46-.24-2.55l-.65-.64h-.24c-1.25,1.04-1.95,1.81-2.11,2.31l-1.46,.32-.57,.88-1.71,.64-1.02-.32-.97,.16c-1-.61-1.87-.96-2.6-1.04l-1.14-.88c-.81-1.81-1.22-3.11-1.22-3.91,0-.43,.11-.96,.33-1.6h.24c.14-.37,.33-1.05,.57-2.04l-.24-.64v-.32c0-.27,.17-.65,.51-1.16,.34-.5,.52-.89,.55-1.16,1.63-1.12,2.6-2.77,2.93-4.95,.57-.37,1.02-.77,1.34-1.2,.98-.32,1.68-.58,2.11-.8h.33c.6-.69,1.27-1.28,2.03-1.76l.33-.64,2.68-.88,2.36,.32,.89,.56h1.14l1.22-1.12h1.14l1.54,.56,1.18-.32,.65,.32,.24,.56,2.11-.24,.89-.64,.57,.32,.89-.32c.24,.24,.43,.64,.57,1.2Zm-9.22,1.2l-1.79-.64c-1.08,.29-2.06,.4-2.93,.32l-2.11,.88-1.14,1.12c-.08,.43-.56,1.7-1.44,3.83-.88,2.13-1.4,3.25-1.56,3.35l-.16,.88-.81,.72-.16,.56,.16,.56-.89,1.24v1.04l-.49,.48v.8l-.33,.56v.32l-.85,.32v1.12l.24,.32,1.26,.56c.65-.21,1.63-.8,2.93-1.76h.33l.89-.56c.3-.43,.79-1.01,1.46-1.76v-.24l.57-.32c.6-1.06,1.49-2.62,2.68-4.67v-.32l.89-.88c.08-.88,.43-1.84,1.06-2.87-.05-.19,.03-.69,.24-1.52l.65-.24v-.32l-.16-.32c.16-.37,.46-.93,.89-1.68h.24l.33-.88Z"/>
      <path class="cls-1" d="M108.08,44.01l-.24,1.44-.89,.24c-.27-.05-.96-.21-2.07-.48-.81-.21-1.5-.32-2.07-.32-.05,0-.57,.08-1.54,.24l-.24,.32h-1.71l-.89,.8c-.14,.69-.46,1.49-.98,2.39,.08,.77-.03,1.65-.32,2.63l-.57,.56,.33,1.52-.57,.24-.33,.56,.33,.64-.65,.72-.24,1.2-.33,.08-.57,1.2v.24l-1.22,.64,.32,.92-.65,.56-.24,.88-.93,1.2v.56l.24,.24h.69v.64l-.33,.24c.22,.51,.38,1.12,.49,1.84l1.63-.32,.65,.4,.49-.4,.65,.24c.57-.21,1.44-.5,2.6-.88l.89-.88,.65-1.68v-1.52c.46-1.14,.95-1.98,1.46-2.51l-.65-.4,.65-.56v-.32l.89-.56h.89c.62,.16,.92,.24,.89,.24l.81,1.76-.57,.92v.88c-.65,.88-1.33,1.46-2.03,1.76v.32l-.89,1.12c-.11,.9-.46,1.65-1.06,2.23l-.97,.64-.65,.88c-1.19,.64-2.17,.93-2.93,.88l-.33,.64h-.57l-.33-.32c-.57,.13-.97,.32-1.22,.56l-1.46,.32v-.32c-1.27-.21-2.26-.29-2.97-.24-.22-.35-.69-.73-1.42-1.16-.81-.48-1.34-.86-1.58-1.16v-1.52l-.24-.24v-1.2c.62-1.62,.92-2.69,.89-3.19l.49-.48c.33-.56,.43-1.29,.33-2.19l1.06-1.36c-.03-.24,.16-1.25,.57-3.03l.73-.8-.32-.64c.3-1.04,.73-2.58,1.3-4.63h.57c.24-.32,.45-1.01,.61-2.08l-.37-.32-1.46,.32c-.57,.45-1.06,.75-1.46,.88l-.89-.24c-1.11,.53-2.19,.72-3.25,.56l.32-1.2c.68-.53,1.46-1.01,2.36-1.44h.57l.33-.56h.89l1.14-.56,.73,.16c1.06-.19,1.99-.44,2.8-.76l.41-1.2h.57l1.22-1.44,.24-.88c.54-.32,.95-.53,1.22-.64l.24-.88,.89,.32,.33-.32v-.56l1.22-.56v-.56l.57-.88h.57l.33,.24,.57-.24v2l-.57,.32v.24l-.33,.32v.88l-1.22,1.44c-.08,1.01-.43,1.93-1.06,2.75,1.06,.08,2.11,.24,3.17,.48,.49-.16,1.25-.24,2.28-.24,1.11,0,2.03,.08,2.76,.24l.57,1.2Z"/>
      <path class="cls-1" d="M124.29,61.29c.05,.45-.14,1.12-.57,2l-.57,.32-.33,.56h-.33l-.57,.64-1.22,.24c-.08,.19-.26,.45-.53,.8-.27,.35-.45,.61-.53,.8l-.97,.72-1.22,.32-.24,.32-1.22,.24-.32,.32-1.5-.56c-1.22,.11-2.41-.11-3.58-.64v-.24c-.22-.32-.41-.53-.57-.64l-.57-.24c-.49-.85-.73-1.7-.73-2.55l.41-.96c.43-.29,1.16-1.38,2.19-3.27,.68-1.22,1.35-2.46,2.03-3.71,.05-.64,.51-2.1,1.38-4.39v-.56l.33-.32v-.32h.37l.65-1.28-.08-1.28-.32-.32c-.79,.08-1.48,.37-2.07,.88v.32c-1.08,.32-1.87,.59-2.36,.8l-.65,.64c-.54,.08-1.11,.27-1.71,.56l-.65-.08-.57-.48-.16-.64,.16-.8c.95-.74,1.73-1.17,2.36-1.28,.87-.16,1.73-.32,2.6-.48,.35-.16,.87-.4,1.54-.72,1.6-.69,3.59-1.04,5.97-1.04,.05,0,.26,.04,.61,.12,.35,.08,.55,.12,.61,.12,.49,.48,.87,1.06,1.14,1.76h.33c.22,.35,.33,1.06,.33,2.15,0,.11-.08,.56-.24,1.36-.19,.13-.63,.61-1.31,1.44l-.9,.32-.24,.88h-.32l-.57,.56c.08,.77-.03,1.65-.32,2.63h-.24c-.11,.67-.33,1.25-.65,1.76l-.89,.8c-.65,2.05-.95,3.15-.89,3.31h-.24c-.05,.48-.19,1.17-.41,2.07l.08,.96c.81-.05,1.93-.48,3.35-1.3,1.42-.81,2.28-1.58,2.58-2.29l.97-.56,.73-.08,.65,.32Zm3.98-30.57l-.57,.48c-.16,1.17-.57,1.97-1.22,2.39v.8l-.65,.72-.32,1.12-1.06,.24c-.11,.83-.38,1.49-.81,2-.6,.35-1.14,.8-1.63,1.36l-1.06,.32-.73-1.68c.05-.58,.08-1.46,.08-2.63,.73-1.17,.92-2.39,.57-3.67,.38-.93,.87-1.73,1.46-2.39l1.46-.56,.33-.32c.43-.21,.89-.32,1.38-.32h1.3c.6,.27,1.08,.67,1.46,1.2v.96Z"/>
      <path class="cls-1" d="M152.32,54.55l-.37,2.15h-.24v.56l-.57,.64v.24l-.89,.64-.89,1.48-.89,.56,.33,.48c-.33,.64-.65,1.12-.98,1.44l-.16,.8c-.46,.27-1.06,.85-1.79,1.76-.81,.96-1.44,1.6-1.87,1.92-.65-.08-1.33,.03-2.03,.32-.7-.21-1.79-.32-3.25-.32-.76,.16-1.25,.29-1.46,.4l-1.54-.4c-.95-.82-1.77-1.33-2.48-1.52-.43-.37-1-1.01-1.71-1.92-.11-.42-.22-1.17-.33-2.23-.43-.5-.92-1.33-1.46-2.47-1.08-.88-1.63-2.33-1.63-4.35l.81-2.07c.54-.53,1.3-1.04,2.28-1.52,.27-.37,.49-.74,.65-1.12l1.47-.88,1.47-2,1.51-.56h.9l1.22-1.2,1.47-.32,.57,.32c.24,.32,.46,1.01,.65,2.08h.57l.32-.32,1.45-.56,.57-.64h1.45l1.21,.64,.57,2,1.47,.56h.33c.33,.48,.82,.88,1.47,1.2,.54,.88,1.15,2.29,1.83,4.23Zm-2.44-.72l-.56-1.52v-.24l-.64-.56-.24-.64-1.21-.56-.89,.56c-.19,.56-.48,1.04-.89,1.44,.05,.19-.03,.59-.24,1.2l-.65,.32v.24l-.89,.64-1.46-.88-.24-.32v-2.31l-.65-1.44v-.32l-.57-.32v-.24l-.57-.32-1.22,.32-.41,.72-1.38,.72h-.24c-.14,.48-.65,1.06-1.54,1.76v.56l.33,.32v.56l.16,.4-.73,1.68v1.12c.16,.16,.35,.45,.57,.88,0,.11-.01,.25-.04,.44-.03,.19-.04,.33-.04,.44,0,.08,.01,.22,.04,.42,.03,.2,.04,.34,.04,.42,.24,.37,.43,.98,.57,1.84l1.22,.88,.57,1.12,1.46,1.2,2.11,.32c.59-.4,1.51-.88,2.76-1.44l-.08-.64c.49-.35,1.19-.85,2.11-1.52l.24-.8c.51-.43,1-1.02,1.46-1.8l1.22-.56c.49-1.17,.67-2.53,.57-4.07Z"/>
      <path class="cls-1" d="M225.95,65.52l-.89,1.44-1.79,1.2h-1.22l-.57-.64-.81,.56c-.27,.35-.71,.85-1.3,1.52-.79,.4-1.95,1.17-3.5,2.31-1.11,.56-2.2,.74-3.25,.56-.27-.16-.68-.35-1.22-.56-1.84-.48-3.83-1.06-5.98-1.76-.52-.27-1.3-.64-2.36-1.12-1.03-.32-2.06-.63-3.09-.92-1.19-.4-2.14-.89-2.84-1.48l-2.03-.24-.89-.64h-.65v-.24l-2.97-1.6c-.6,.21-1.42,.85-2.46,1.92-1.04,1.06-1.9,1.73-2.58,2l-.65,1.36c-.81,.72-1.84,1.41-3.09,2.07l-1.62,.16-1.46-.72c-1.3,.11-2.27,.16-2.92,.16-.41,0-.95-.06-1.62-.18-.68-.12-1.15-.19-1.42-.22h-4.14c-.51-.13-.81-.24-.89-.32l-.57-.88,.57-3.51c.65-1.2,2.11-2.25,4.39-3.15,2.03-.82,3.86-1.24,5.48-1.24-.49,0,.79,.21,3.82,.64l.57-.56c.19-.9,.49-1.68,.89-2.31l1.79-1.24c.46-.98,1.08-1.86,1.87-2.63,.41-.96,.62-1.84,.65-2.63,.03-1.28,.08-2.13,.16-2.55,.27-.98,.65-2.45,1.14-4.39,.16-.11,.57-.8,1.22-2.07v-.24c.62-.61,1.02-1.32,1.18-2.11,.11-.66,.2-1.33,.28-2,.22-.56,.52-1.41,.89-2.55,.08-1.33,.39-3.3,.93-5.91,.38-.77,.79-2.02,1.22-3.75l.97-1.04,1.38-3.71,.57-.56,.57-2.87c.51-.24,1.24-.93,2.19-2.08,.95-1.14,1.71-1.81,2.28-2-1.08-.29-2.06-.4-2.93-.32l-.33-.32c-2.33,.19-3.9,.11-4.71-.24l-.65-.64-1.5,.64h-1.14c-1.93-1.12-3.55-1.68-4.88-1.68-.24,0-1.31,.08-3.21,.24-1.9,.16-2.86,.24-2.89,.24-1.49,1.89-2.38,3.43-2.68,4.63v1.52l.57,.24,.32,.64,.89,.24,2.68-.24,.89-.64,.57-1.44,1.14-1.2,1.22-.56h1.79l1.14,.56,.32,1.2-.57,1.2-1.22,1.12c-1.3,.56-2.19,.77-2.68,.64-1.25,.85-2.84,1.28-4.79,1.28-1.41,0-2.78-.24-4.1-.72l-.33-1.2-1.14-1.12c-.43-1.86-.62-3.14-.57-3.83,1.22-1.33,2.99-2.66,5.32-3.99,.43-.05,1.31-.23,2.64-.52,1.14-.24,1.99-.36,2.56-.36,.35,0,.87,.04,1.54,.12,.68,.08,1.19,.12,1.54,.12,.08,0,.5-.05,1.24-.16,.75-.11,1.33-.16,1.77-.16,.22,0,.55,.04,1.02,.12,.46,.08,.8,.12,1.02,.12,.08,0,.69-.08,1.83-.24,.95,.43,1.92,.72,2.93,.88l.33,.88c.81,.29,1.6,.4,2.36,.32l2.68,1.12h1.79l.57,.32c1.16-.08,2.36-.56,3.58-1.44h.89l.57-.56h1.26l1.46-.64h1.46l.89-.88,2.11,.32,.24,.32,1.22,.24,.57,.64-.24,.56h-.32l-.57,.56h-.65l-.57,.88h-3.58l-.57,.32h-1.46l-.65-.32-.85,.56-1.55,.32-.57,.56,2.72,.32,.89,1.12,2.36,.32,.57-.32h1.46l.65,.32h1.14l.89,1.2c1.46,.16,2.25,.24,2.36,.24,.05,0,.26-.04,.61-.12,.35-.08,.55-.12,.61-.12,.76-1.12,1.17-2,1.22-2.63l-1.79-2.08-1.54-.56v-.88l.33-.24h.57l1.54,.8h1.14c.43,.59,1.03,1.46,1.79,2.63l-.57,.64v1.68l-.89,.88-.57,1.52-1.54,.88c-1.06-.05-2.63,.03-4.71,.24-1.49-.69-3.14-1.17-4.96-1.44l-2.48-1.76-3.58-.88-1.14,1.2-1.54,.24-.24,.64c.27,.75,.35,1.7,.24,2.87h.32v.56l-.57,.64h-.65l-.24,1.12h-.32l-.08,1.28-.81,.52-.24,.56,.24,.64-.57,1.44-.57,.56c.27,.93,.76,2.1,1.46,3.51l-.33,.88,.65,1.12-.32,1.52h-.33v1.76l-.24,.24v.56l-.89,.64v1.12l-.9,1.2v.56l-.89,.68v.24l-.32,.32c-.16,1.28-.24,1.94-.24,2,0,.13,.05,.37,.14,.72,.1,.35,.13,.61,.1,.8-.08,.67-.18,1.32-.29,1.96-.16,.8-.45,1.4-.86,1.8l-.33,1.2-.98,.72c-.41,.8-.87,2.1-1.38,3.91l-2.15,1.44,.32,.56-.57,.92v.88h2.97c.62,.11,2.67,.73,6.14,1.88,3.47,1.14,5.49,1.88,6.06,2.19,.65,.45,1.63,1.12,2.93,2,.7,.32,1.69,.82,2.97,1.52,.54,.45,1.44,1.04,2.68,1.76l.57-2.31,.89-.64h1.79l.89,.88,1.22-.88,1.46-2.87,.89-.32,.89-.88,1.79,.32,.89,.88v1.76Zm-45.59-.16l-1.06-.72c-1.73-.21-2.47-.32-2.2-.32-2.09,0-3.72,.4-4.92,1.2-.87,1.06-1.57,1.84-2.11,2.31v.88l1.79,.32c.95-.51,2.08-.88,3.41-1.12,2.14-.37,3.29-.59,3.45-.64l1.63-1.92Z"/>
      <path class="cls-1" d="M257.56,46.01l-.32,.56-.56,.32v.32l-2.35,.24-.33,.64v.8l-.24,.32v.88h-.33v.32l-.49,.56-.16,.72-.65,.48,.24,.56c-.24,.43-.58,1.38-1.02,2.87l-1.22,1.44h.33v.32c-.9,.59-1.6,1.18-2.12,1.8l-.16,.48,.16,.4-.32,2.63h-.24v.56l-.56,.88,.24,.56,.89,.24c.7-.77,1.8-1.44,3.29-2l.49,.88-.77,1.52c-1.19,.75-2.19,1.7-3.01,2.87-1.63,.45-2.71,.64-3.25,.56v-.24h-.89c-.52-.61-1.11-1.12-1.79-1.52,.05-.61-.03-1.46-.24-2.55l-.65-.64h-.24c-1.25,1.04-1.95,1.81-2.11,2.31l-1.46,.32-.57,.88-1.71,.64-1.02-.32-.98,.16c-1-.61-1.87-.96-2.6-1.04l-1.14-.88c-.81-1.81-1.22-3.11-1.22-3.91,0-.43,.11-.96,.33-1.6h.24c.14-.37,.33-1.05,.57-2.04l-.24-.64v-.32c0-.27,.17-.65,.51-1.16,.34-.5,.52-.89,.55-1.16,1.62-1.12,2.6-2.77,2.93-4.95,.57-.37,1.02-.77,1.34-1.2,.98-.32,1.68-.58,2.11-.8h.33c.6-.69,1.27-1.28,2.03-1.76l.33-.64,2.68-.88,2.36,.32,.89,.56h1.14l1.22-1.12h1.14l1.54,.56,1.18-.32,.65,.32,.24,.56,2.11-.24,.89-.64,.57,.32,.89-.32c.24,.24,.43,.64,.57,1.2Zm-9.22,1.2l-1.79-.64c-1.08,.29-2.06,.4-2.93,.32l-2.11,.88-1.14,1.12c-.08,.43-.56,1.7-1.44,3.83-.88,2.13-1.4,3.25-1.56,3.35l-.16,.88-.81,.72-.16,.56,.16,.56-.89,1.24v1.04l-.49,.48v.8l-.33,.56v.32l-.85,.32v1.12l.24,.32,1.26,.56c.65-.21,1.62-.8,2.93-1.76h.33l.89-.56c.3-.43,.79-1.01,1.46-1.76v-.24l.57-.32c.6-1.06,1.49-2.62,2.68-4.67v-.32l.89-.88c.08-.88,.43-1.84,1.06-2.87-.05-.19,.03-.69,.24-1.52l.65-.24v-.32l-.16-.32c.16-.37,.46-.93,.89-1.68h.24l.33-.88Z"/>
      <path class="cls-1" d="M341.78,10.26l-1.22,1.44-2.03,1.12h-2.68l-1.14,.64-1.22-.32-2.68,.56-3.29-.88-1.79,.32-2.93-.88c-.62,.08-1.52,.27-2.68,.56,0,1.17-.19,2.74-.57,4.71l-.65,.88,.33,.88,.89,.56,1.46-.32c.76,.21,2.25,.32,4.47,.32,1.03,0,1.94,.29,2.72,.88l.57,2,2.03,.64c.81,.56,1.52,1.64,2.11,3.23l-.33,2.31,.65,1.2c-.27,1.54-.38,2.61-.33,3.19h-.33l-.89,1.44-1.14,.56-.57,.88,3.49,3.51,.65,1.76-.33,1.16,.33,.32-.33,.88c.27,.32,.87,.8,1.79,1.44v.56l1.14,1.76v.88l-.57,.56v1.76l.89,.64-.33,.56-.89,.56-.81,1.44v1.76c0,.05,.08,.64,.24,1.76-.27,1.09-.87,2.09-1.79,2.99l-.24,1.12-1.54,.88v.88l.65,1.2-.32,.88-.89,.8-1.14,.32-.65,.56h-.24l-.33,1.2-1.83,1.2c-1.22,.21-2.19,.29-2.93,.24l-.32,.64-2.11,1.12-1.14-.32-2.68,1.2c.05,0-.84,.19-2.68,.56-1.11-.21-2-.29-2.68-.24-1.98-.69-4.83-1.97-8.57-3.83l-1.46-.24-.89-1.2-2.44-1.2-2.6-.24c-1.71,1.17-3.7,1.94-5.98,2.31l-1.46-.24-.89,.24-1.22-.56c.16-.53,.57-1.12,1.22-1.76l.57-.32c.79-1.44,1.57-2.39,2.36-2.87l.33-1.44-.62-1.52-4.15-1.48-1.71-1.44c-.57-.37-1.95-.56-4.15-.56-2.06-.88-3.18-1.3-3.34-1.28l-2.08,.64-1.22,1.2v.88l-.9,1.12-.08,1.4c.08,.88,.52,1.7,1.3,2.47,2.11,.32,3.26,.48,3.45,.48,.11,0,.65-.08,1.63-.24,.7-.96,1-2.21,.89-3.75l.57-.36,2.11,.36v.56l.57,.64v.88l-.89,1.44c-.19,.13-.79,.61-1.79,1.44-1,.08-2.09,.48-3.25,1.2-2.03-.11-3.72-.4-5.08-.88l-.33-.64-1.71-1.12-1.22-2.31,.57-2.99,.33-.32c.3-.43,.7-1.09,1.22-2h.81l.89-1.44c1.71-.98,3.4-1.52,5.07-1.6l1.54,.4c.54,.37,1.03,1.06,1.46,2.08l1.79,.24,.89-.24c2.03,.35,3.98,1.2,5.85,2.55h.65v.32l.89,.32v.24l1.46-.24,1.22-2.07c-.08-.72,.16-2.05,.73-3.99,.49-1.7,.93-2.98,1.34-3.83,.41-.53,.89-1.52,1.46-2.95,.38-.4,.87-.98,1.46-1.76,.22-.72,.62-1.77,1.22-3.15,1.55-3.01,3.34-5.93,5.37-8.78-.22-1.84-.32-2.71-.32-2.63l.57-.88,3.57-1.68,.33-1.24-.33-1.44,.57-.88-.24-.64c-1.98,1.25-3.57,1.94-4.79,2.08l-.89,.88-2.36,.92-.57-.36-.57-1.12,.57-.88,2.93-2.08c.79-.27,1.6-.35,2.44-.24l.89-.64c.81-.29,1.98-.37,3.49-.24l.69-.64c0-.05,.04-.24,.12-.56,.08-.32,.12-.5,.12-.56,0-.19-.04-.48-.12-.88-.08-.4-.12-.69-.12-.88,0-.11,.08-.8,.24-2.07,.35-.21,1.06-.4,2.11-.56l2.36-1.76,.33-1.12-1.22-.64c-1.95,.16-2.95,.24-3.01,.24-.14,0-1.91-.08-5.32-.24-.62,.32-1.5,.55-2.64,.68-1.3,.16-2.21,.33-2.72,.52-.84,.93-1.44,1.81-1.79,2.63l-1.46,1.12h-1.14v-.24l-1.22-.32-.89-1.2,.33-1.68c1.3-.43,2.28-.72,2.93-.88l.33-.64,5.61-2.35,1.46,.56c.81-.53,1.81-.8,3.01-.8,.05,0,.24,.04,.57,.12,.33,.08,.52,.12,.57,.12,.33-.16,1.23-.24,2.72-.24,.22,0,.64,.11,1.26,.32,.62,.21,1.1,.29,1.42,.24l2.36,.92c1-.13,1.79-.05,2.36,.24l1.22-.24,.89-.68v-.24c.46-.08,1.29-.36,2.48-.84,1-.4,1.86-.6,2.56-.6,.19,0,.69,.08,1.5,.24l.33-.24,1.71,.24,3.9-1.12,2.36,.24c1.3,1.09,2.57,1.86,3.82,2.31l.33,1.56Zm-10.65,40.78l-.08-1.36-.81-1.52h-.57v-.64c.46-.45,.76-1.22,.89-2.31l-1.22-1.44,.89-1.2-.33-2.35-.89-1.44-1.18,.32-.65-.32h-1.14l-1.22,.88h-1.46l-.57,.88h-1.79c-.65-.21-1.54-.61-2.68-1.2v-.56c-2.14,.59-3.22,.88-3.25,.88l-.89-.56v-1.52l.57-1.44,1.54-1.2c2.25-.9,4.6-1.36,7.07-1.36,.24,0,1.62,.37,4.14,1.12l1.83-1.2c.38-.45,.68-1.04,.89-1.76l-.33-1.44-.57-.56,.89-1.44-.33-.88h-.24l-.65-.64-.24-.56-1.67-.4-.49-.76v-1.52l-.57-.88-1.22-.88c-.24,.03-.83,.09-1.75,.2-.73,.08-1.31,.12-1.75,.12-.27,0-.7-.06-1.3-.18s-1.06-.17-1.38-.14l-.89,.64c.14,.59-.05,1.54-.57,2.87l-1.54,1.24-.24,.56-.65,.32-.89,2.31-.89,.56-.24,.88c-.57,.4-1.07,1.09-1.5,2.07v.56l-.65,.88v2c-.27,.8-.65,1.52-1.14,2.15-.68,.29-1.62,1.28-2.84,2.95l-.16,1.96h-.24c-.6,.83-1.49,2.47-2.68,4.95l-2.36,1.76-.33,1.44,.89,.56c-.05,.53-.35,1.45-.87,2.75-.53,1.3-.94,2.04-1.24,2.19-.6,1.09-.79,2.46-.57,4.11l1.3,2.08,2.84,2h2.68c.87,.77,1.95,1.25,3.25,1.44l1.22,1.04,.89,.16,.24,.32c1.19,.85,2.5,1.22,3.94,1.12,.73-.35,2.03-.72,3.9-1.12,1.68-.4,2.92-.82,3.74-1.28,.65-.56,1.35-1.89,2.11-3.99h.89l.89-.88v-1.44l-.32-.56,.32-.88,.89-.92,.24-1.52,1.58-1.12,.24-.88,.89-.88-.24-2.08,.57-1.12Zm-7.43-14.33v-.56h-1.79l-1.22,.56c-.98-.16-2.06,.05-3.25,.64l-.24,.56h.57l.57,.56,.57-.24h.89l.65-.64c.76-.13,1.84-.42,3.25-.88Zm15.15-27.09l-.24-.72c-.89-.13-1.71-.2-2.44-.2h-3.01c-3.28,0-6.05,.6-8.33,1.8v.32c2.25,.11,4.16,.4,5.73,.88l.57-.32h2.03l1.54-.56,1.14,.32c.65-.42,1.65-.93,3.01-1.52Z"/>
      <path class="cls-1" d="M365.19,54.55l-.37,2.15h-.24v.56l-.57,.64v.24l-.89,.64-.89,1.48-.89,.56,.33,.48c-.33,.64-.65,1.12-.98,1.44l-.16,.8c-.46,.27-1.06,.85-1.79,1.76-.81,.96-1.44,1.6-1.87,1.92-.65-.08-1.33,.03-2.03,.32-.7-.21-1.79-.32-3.25-.32-.76,.16-1.25,.29-1.46,.4l-1.54-.4c-.95-.82-1.77-1.33-2.48-1.52-.43-.37-1-1.01-1.71-1.92-.11-.42-.22-1.17-.33-2.23-.43-.5-.92-1.33-1.46-2.47-1.08-.88-1.63-2.33-1.63-4.35l.81-2.07c.54-.53,1.3-1.04,2.28-1.52,.27-.37,.49-.74,.65-1.12l1.47-.88,1.47-2,1.51-.56h.9l1.22-1.2,1.47-.32,.57,.32c.24,.32,.46,1.01,.65,2.08h.56l.32-.32,1.45-.56,.56-.64h1.45l1.21,.64,.57,2,1.47,.56h.33c.33,.48,.82,.88,1.47,1.2,.54,.88,1.16,2.29,1.83,4.23Zm-2.44-.72l-.56-1.52v-.24l-.64-.56-.24-.64-1.21-.56-.89,.56c-.19,.56-.48,1.04-.89,1.44,.05,.19-.03,.59-.24,1.2l-.65,.32v.24l-.89,.64-1.46-.88-.24-.32v-2.31l-.65-1.44v-.32l-.57-.32v-.24l-.57-.32-1.22,.32-.41,.72-1.38,.72h-.24c-.14,.48-.65,1.06-1.54,1.76v.56l.33,.32v.56l.16,.4-.73,1.68v1.12c.16,.16,.35,.45,.57,.88,0,.11-.01,.25-.04,.44-.03,.19-.04,.33-.04,.44,0,.08,.01,.22,.04,.42,.03,.2,.04,.34,.04,.42,.24,.37,.43,.98,.57,1.84l1.22,.88,.57,1.12,1.46,1.2,2.11,.32c.59-.4,1.51-.88,2.76-1.44l-.08-.64c.49-.35,1.19-.85,2.11-1.52l.24-.8c.51-.43,1-1.02,1.46-1.8l1.22-.56c.49-1.17,.68-2.53,.57-4.07Z"/>
      <path class="cls-1" d="M394.85,47.13l-.08,.8c-.38,.74-.81,1.36-1.3,1.84l-2.88,.24c-1.41-.74-2.44-1.33-3.09-1.76-.76,.11-1.38,.16-1.87,.16-.16,0-.41-.04-.73-.12-.33-.08-.57-.12-.73-.12-.05,0-.73,.08-2.03,.24l-1.54,.96c-.08,.35-.24,.64-.49,.88-.33,.88-.92,2.18-1.79,3.91v.8l-.89,.56,.08,.64-.41,.72-.65,.32v.32l-.89,1.12c-.24,1.01-.34,1.72-.28,2.12h.61c-.3,1.14-.41,2.21-.33,3.19l.33,.56c.19,.13,.89,.43,2.11,.88,.92-.05,2.18-.37,3.78-.96,1.71-.61,2.83-1.22,3.37-1.84l.33-1.04,.57-.72,1.3-.72,1.14,.16,.41,.8,.65,.56v.88c-1.11,.77-1.9,1.44-2.36,2-.92,.37-1.92,.85-3.01,1.44-.68,.11-1.27,.32-1.79,.64h-.24l-.33,.56v.16h-.81l-.98,.72h-1.46c-1.44,0-2.72-.19-3.86-.56v-.64l-1.22-.88c-.14-.53-.33-.9-.57-1.12-.52-.45-1.3-.8-2.36-1.04-.24-.74-.65-1.44-1.22-2.07-.22-.74-.32-1.85-.32-3.31,0-.72,.25-1.62,.75-2.69,.5-1.08,1.04-1.83,1.6-2.25l-.16-.32,.16-.56h.33l.57-1.2v-.24l.65-.88,.98-.4c.16-.58,.49-1.12,.98-1.6l1.18-.64,.49-1.2,1.14-.32,.41-.64h1.06l1.54-.8c.92-.05,2.28-.24,4.06-.56l2.44,.56,.57,.88c1.22,.21,2.14,.56,2.76,1.04,.3,0,.74-.01,1.34-.04,.59-.03,1.06-.04,1.38-.04,.51,0,1.06,.21,1.62,.64Z"/>
      <path class="cls-1" d="M424.75,46.01l-.32,.56-.56,.32v.32l-2.35,.24-.33,.64v.8l-.24,.32v.88h-.33v.32l-.49,.56-.16,.72-.65,.48,.24,.56c-.24,.43-.58,1.38-1.02,2.87l-1.22,1.44h.33v.32c-.9,.59-1.6,1.18-2.12,1.8l-.16,.48,.16,.4-.32,2.63h-.24v.56l-.56,.88,.24,.56,.89,.24c.7-.77,1.8-1.44,3.29-2l.49,.88-.77,1.52c-1.19,.75-2.19,1.7-3.01,2.87-1.63,.45-2.71,.64-3.25,.56v-.24h-.89c-.52-.61-1.11-1.12-1.79-1.52,.05-.61-.03-1.46-.24-2.55l-.65-.64h-.24c-1.25,1.04-1.95,1.81-2.11,2.31l-1.46,.32-.57,.88-1.71,.64-1.02-.32-.98,.16c-1-.61-1.87-.96-2.6-1.04l-1.14-.88c-.81-1.81-1.22-3.11-1.22-3.91,0-.43,.11-.96,.33-1.6h.24c.14-.37,.33-1.05,.57-2.04l-.24-.64v-.32c0-.27,.17-.65,.51-1.16,.34-.5,.52-.89,.55-1.16,1.62-1.12,2.6-2.77,2.93-4.95,.57-.37,1.02-.77,1.34-1.2,.98-.32,1.68-.58,2.11-.8h.33c.6-.69,1.27-1.28,2.03-1.76l.33-.64,2.68-.88,2.36,.32,.89,.56h1.14l1.22-1.12h1.14l1.54,.56,1.18-.32,.65,.32,.24,.56,2.11-.24,.89-.64,.57,.32,.89-.32c.24,.24,.43,.64,.57,1.2Zm-9.22,1.2l-1.79-.64c-1.08,.29-2.06,.4-2.93,.32l-2.11,.88-1.14,1.12c-.08,.43-.56,1.7-1.44,3.83-.88,2.13-1.4,3.25-1.56,3.35l-.16,.88-.81,.72-.16,.56,.16,.56-.89,1.24v1.04l-.49,.48v.8l-.33,.56v.32l-.85,.32v1.12l.24,.32,1.26,.56c.65-.21,1.62-.8,2.93-1.76h.33l.89-.56c.3-.43,.79-1.01,1.46-1.76v-.24l.57-.32c.6-1.06,1.49-2.62,2.68-4.67v-.32l.89-.88c.08-.88,.43-1.84,1.06-2.87-.05-.19,.03-.69,.24-1.52l.65-.24v-.32l-.16-.32c.16-.37,.46-.93,.89-1.68h.24l.33-.88Z"/>
    </g>
  </g>
</svg>